<?xml version="1.0" encoding="utf-8"?>
<!-- Generator: Adobe Illustrator 18.0.0, SVG Export Plug-In . SVG Version: 6.00 Build 0)  -->
<!DOCTYPE svg PUBLIC "-//W3C//DTD SVG 1.1//EN" "http://www.w3.org/Graphics/SVG/1.1/DTD/svg11.dtd">
<svg version="1.1" id="Layer_1" xmlns="http://www.w3.org/2000/svg" xmlns:xlink="http://www.w3.org/1999/xlink" x="0px" y="0px"
	 viewBox="0 0 248 57.3" enable-background="new 0 0 248 57.3" xml:space="preserve">
<path fill="#F14B5A" d="M211.2,17.6c2.3,0,4.1-1.8,4.1-4.1c0-2.3-1.7-4.1-4.1-4.1c-2.2,0-4,1.8-4,4.1
	C207.2,15.7,209,17.6,211.2,17.6"/>
<path fill="#F14B5A" d="M235.1,34.6C235.1,34.6,235.1,34.6,235.1,34.6l0-2.2c0-0.2,0-0.4-0.1-0.6c0,0.2,0.1,0.4,0.1,0.6V34.6z"/>
<path fill="#F14B5A" d="M174.7,30.7c0,0.2,0,0.4,0,0.6L174.7,30.7C174.7,30.7,174.7,30.7,174.7,30.7"/>
<path fill="#F14B5A" d="M189.3,26.8c0-0.2,0.1-0.5,0.1-0.8c0-1.7-1.2-2.8-3.1-2.8c-1.5,0-3,0.3-4.5,0.7c-0.9,0.3-1.7,0.7-2.5,1.1
	c-0.2,0.1-0.4,0.2-0.6,0.4c0,0,0-0.1-0.1-0.1c-0.3-0.4-0.6-0.8-0.9-1.2c-0.2-0.3-0.5-0.5-0.8-0.7c-0.3-0.3-0.7-0.4-1.1-0.5
	c-0.9-0.3-1.9,0-2.8,0.7c-0.9,0.7-1.3,1.3-0.7,2c0.2,0.2,0.4,0.4,0.6,0.6c0,0,0.1,0.1,0.1,0.1c0.2,0.2,0.4,0.4,0.6,0.7
	c0,0,0.8,0.3,0.9,3.8c0,0,0,0,0,0v0.6v6.5v0l0,0v0.6l0,6.2V45v0.1v0v0.1v0v1.4v0.8c0,1.9,1.1,2.6,2.1,2.8c0.4,0.1,0.8,0.1,1.1,0.1
	c0.6,0,1.1-0.2,1.4-0.5c0.5-0.5,0.6-1.4,0.6-2.3c0,0,0,0,0-0.1l0-9.5c0,0,0,0,0,0v-5c0.1-0.9,0.1-1.8,0-2.7v-0.1c0,0,0,0,0,0
	c0.6-0.6,1.3-1.1,2-1.5c1.5-0.8,3.1-1.3,4.7-1.3c0.3,0,0.7,0,1,0.1c0.3,0,0.6,0.1,0.9,0.1C189,27.6,189.3,27.4,189.3,26.8"/>
<polygon fill="#F14B5A" points="80.8,11 80.8,11 80.8,11.5 "/>
<path fill="#F14B5A" d="M116,29.8c-0.5-1.4-1.3-2.6-2.3-3.7c-1.3-1.5-3.3-2.9-5.3-3.1c-2-0.2-3.8,0.7-5.4,2c0,0,0,0,0,0c0,0,0,0,0,0
	c-2.1,1.7-5.5,5.4-5.5,13.3c0,0.8,0,1.6,0.1,2.4l0,0l0,0.2c-1,2.5-2.8,5.1-5.2,5.1c-2.5,0-7.1-2.6-7.8-5.4c2-4.5,3.6-6,6.7-11.2
	c1.6-2.7,3.6-4.4,1-5.6c-3.3,0-6.3,5.1-7.1,6.5c-2,3.8-3.6,5.9-4.4,7.5V11.5l0-0.6V8.4c0-0.3-0.1-0.6-0.2-0.9
	c-0.3-0.9-0.9-1.4-1.5-1.6c-0.5-0.2-1.1-0.3-1.6-0.3c-0.6,0-1.1,0.2-1.4,0.5c-0.3,0.3-0.5,0.8-0.5,1.3c0,0,0,0,0,0l0,0v1.3v3.1h0
	v35.7c0,2.6,2,3,3.2,3c0.6,0,1.1-0.2,1.4-0.5c0.6-0.6,0.6-1.5,0.6-2.3V43c1.9,3.6,6.8,7.3,10.9,7.3c3.3,0,5.7-2.1,7.5-4.5
	c0,0,0.1,0.1,0.1,0.1c1.7,2.9,4.3,4.5,7.8,4.5c2,0,3.7-0.5,5.2-1.6c1.1-0.9,2-2,2.6-3.1c0,0,0-0.1,0.1-0.1c0.5-1,1-2,1.3-3.1
	c0,0,0-0.1,0-0.1C117.3,38.5,117.5,33.7,116,29.8 M112.3,35c0,0.5,0,1,0,1.5c-0.1,2.4-0.4,4.8-1.4,6.9c0,0,0,0.1-0.1,0.1
	c0,0,0,0.1-0.1,0.1c-0.1,0.2-0.2,0.4-0.3,0.6c-0.9,1.2-1.9,1.7-3.3,1.7c-2.7,0-4.5-3.1-4.5-8c0-3.2,0.2-9.3,4.5-9.7
	c1-0.1,2.6,0.2,3.4,0.9C112.3,30.4,112.3,32.9,112.3,35"/>
<path fill="#F14B5A" d="M168.2,45.7c-0.6,0.2-1.3,0.3-2,0.3c-2.8,0-4.8-1.3-5.8-3.8c6.2-1.9,9.5-7.7,9.5-12.4c0-4-2.3-6.6-5.9-6.6
	c-4.8,0-10,5.8-10,14.5c0,1,0.1,2,0.3,2.9c-0.9,3.6-2.2,5.5-3.9,5.5c-1,0-1.6-1-1.6-2.8V29.7c0-2.5-0.7-6.6-5.3-6.6
	c-2.5,0-4.8,2-6.7,5.7c-0.2-2.3-1.2-5.7-5.2-5.7c-2.5,0-4.8,1.9-6.7,5.8v-2.3c0-0.3-0.1-0.6-0.2-0.9c-0.3-0.9-0.9-1.4-1.5-1.6
	c-0.5-0.2-1.1-0.3-1.6-0.3c0,0,0,0-0.1,0c-0.6,0-1,0.2-1.3,0.5c-0.3,0.3-0.5,0.8-0.5,1.3c0,0,0,0,0,0l0,0v1.3v3.1h0l0.2,0
	c-0.1,0-0.1,0-0.2,0c0,0,0,0,0,0v8l0,0v0.6l0,6.5v2.5c0,2.6,2,3,3.2,3c0.6,0,1.1-0.2,1.4-0.5c0.6-0.6,0.6-1.5,0.6-2.3v-9.5
	c0.4-5,4-10.5,5.7-10.5c0.9,0,1.1,1.4,1.1,3.6v16.3c0,2.6,2,3,3.2,3c0.6,0,1.1-0.2,1.4-0.5c0.6-0.6,0.6-1.5,0.6-2.3v-9.5
	c0.4-5,4-10.5,5.7-10.5c0.9,0,1.1,1.4,1.1,3.6v13.1c0,3.6,2.3,6.2,5.5,6.2c2.9,0,5.4-1.6,7.2-4.8l0,0l0,0c2.1,3,5.5,4.8,9.1,4.8
	c0.7,0,1.4,0,2.1-0.1c2.4-0.9,1.8-2.6,1.8-2.6C169.4,46.5,168.9,45.9,168.2,45.7 M160.1,31.1c1.2-4.5,3.5-4.1,3.5-4.1
	c2.3,0.3,1,5.2,1,5.2c-1.3,4.8-5.2,6.1-5.2,6.1C159.2,34.3,160.1,31.1,160.1,31.1"/>
<path fill="#F14B5A" d="M235.1,35.6l0-0.2v-0.6v-0.2c0,0,0,0,0,0L235.1,35.6L235.1,35.6z"/>
<path fill="#F14B5A" d="M231.8,29.5C231.8,29.5,231.8,29.5,231.8,29.5c0,0,0.1,0,0.1,0C231.9,29.5,231.9,29.5,231.8,29.5"/>
<polygon fill="#F14B5A" points="212.8,29.9 212.8,29.6 212.8,29.1 212.8,28.9 212.8,28.9 212.8,29.9 "/>
<path fill="#F14B5A" d="M243.1,37c-0.8,0-1.4,0.8-1.7,2c-0.9,4.6-2.3,6.9-4.2,6.9c-1.4,0-2.1-1.4-2.1-2.8v-7.5v-1c0,0,0,0,0,0v-2.2
	c0-0.2,0-0.4-0.1-0.6c0,0,0,0,0,0c0-0.2-0.1-0.3-0.2-0.5c0,0,0-0.1,0-0.1c-0.1-0.1-0.1-0.3-0.2-0.4c0,0,0-0.1-0.1-0.1
	c-0.1-0.1-0.2-0.2-0.3-0.3c0,0-0.1-0.1-0.1-0.1c-0.1-0.1-0.2-0.2-0.4-0.3c0,0-0.1-0.1-0.2-0.1c-0.1-0.1-0.3-0.1-0.4-0.2
	c-0.1,0-0.1,0-0.2-0.1c-0.1-0.1-0.3-0.1-0.4-0.1c-0.1,0-0.1,0-0.2,0c-0.1,0-0.3,0-0.4-0.1c-0.1,0-0.1,0-0.2,0c-0.6,0-1,0.2-1.3,0.5
	c-0.3,0.3-0.5,0.8-0.5,1.3c0,0,0,0,0,0l0,0v1.3v3c0,0,0,0,0,0v7.1c-0.6,1.5-1.7,3.3-3.5,3.3c-2.2,0-3.6-1.9-3.6-5.2
	c0-8.8,5.3-13.4,10.5-13.4c0.3,0,0.7,0,1,0.1c0.3,0,0.6,0.1,0.9,0.1c0.8,0,1-0.6,1-1.6c0-1.7-1.2-2.8-3.1-2.8c-4,0-7.9,1.7-10.7,4.7
	c-3.1,3.3-4.8,7.7-4.8,12.8c0,0.5,0,1,0.1,1.5c-0.9,2.6-2,3.9-3.4,3.9c-1,0-1.6-1-1.6-2.8V29.9v-1c0,0,0,0,0,0v-2.2
	c0-1.6-1.4-2.8-3.3-3c-0.6,0-1,0.2-1.3,0.5c-0.3,0.3-0.5,0.8-0.5,1.3c0,0,0,0,0,0l0,0v1.3v3c0,0,0,0,0,0v8.1c-0.5,2.4-2.2,8-8,8
	c-3.9,0-6.5-3.1-6.5-7.8c0-5.6,2.1-10.5,4.5-10.5c1.8,0,2.1,1.6,2.4,2.8c0,0.2,0.1,0.4,0.1,0.6c-0.1,0.4,0,0.7,0.2,0.9
	c0.2,0.2,0.5,0.4,1,0.4c1.3,0,3.1-1.1,3.1-2.8c0-2.1-1.5-6.5-6.3-6.5c-6.3,0-10.5,7.5-10.6,14.7c0,2.1,0.5,8.2,6.2,11.5
	c1.5,0.8,3.2,1.2,5.1,1.2c3.8,0,6.9-1.2,9.2-3.6l0,0l0,0c0.8,2.3,2.7,3.6,5.1,3.6c2.4,0,4.5-1.1,6.2-3.3l0,0l0,0
	c1.4,2.2,3.5,3.3,6.1,3.3c2.1,0,4-0.9,5.5-2.6c1.1,1.6,2.9,2.6,5,2.6c5.9,0,8.4-6.4,9.4-10.2c0.1-0.3,0.1-0.4,0.1-0.5
	C245.4,38.5,244.2,37,243.1,37"/>
<path fill="#F14B5A" d="M63.1,16.7l-4.8-5.1c-0.1-0.1-0.1-0.1-0.2-0.2l-0.7-0.2c-0.1,0-0.2,0.1-0.2,0.1c0.1,0,0.2-0.1,0.2-0.1L57,11
	l-5.6,2.5l0,0c0,0-0.3,0.1-0.8,0.3l-17,7l-14.8-6l-1.6-0.6l0,0l-5.5-2.3l-0.5,0.2l-1.5,0.6c-0.1,0-0.1,0.1-0.2,0.1l-7.3,7.6
	c-0.1,0.1-0.1,0.2-0.1,0.3v2.7c0,0.2,0.1,0.4,0.3,0.4l7.1,3v12.7c0,0.2,0.1,0.3,0.3,0.4l23.4,12.9c0.1,0,0.1,0.1,0.2,0.1
	c0.1,0,0.1,0,0.2,0l24.5-12.8c0.2-0.1,0.3-0.2,0.3-0.4l0-20l4.2,1.4c0.1,0.1,0.3,0,0.4-0.1c0.1-0.1,0.2-0.2,0.2-0.4V17
	C63.2,16.9,63.2,16.7,63.1,16.7 M7.1,20.8l4.1-4.3l17.6,6.8l-4.2,5L7.1,20.8z M13.2,36.9l0-8.6l3.8,1.6l0,9L13.2,36.9z M30.3,46
	l-5.8-3.1l0-9.7l1.1,0.5c0.2,0.1,0.4,0,0.5-0.1l4.2-4.7V46z M51,39c-1.5,0.8-4.6,0.7-5.6-0.7c0,0.7,0,1.3,0,2.3c0,0.6,0,1.3-0.9,1.8
	C43.9,42.7,43,43,43,41.8c0-6.3,0-12.6,0-19c0-0.9-0.3-0.8-0.3-1c0-0.2,0.6-0.6,1-0.9c1-0.5,1.7-0.2,1.7,0.5c0,1.5,0,2.2,0,3.7
	c0,2,0,4.1,0,6.1c0,1.5,0,2.3,0,3.8v0.5c0.5-1.5,1.6-3.2,2.2-4.7c0.8-1.8,1.8-3.9,3.6-5.1c1.3-0.1,0.3,1.3-0.5,3
	c-1.1,2.4-2.4,4.8-3.4,7.3c0.3,1.2,2.8,1.2,4,0.5c0.6-0.4,1.1-0.9,1.5-1.5c0,0,0.1,0.1,0.1,0.1c0.1,0.2,0.3,0.6,0.3,0.9
	c0,0.3,0,0.5,0.1,0.8C52.7,37.8,51.9,38.5,51,39"/>
<path fill="#B72C47" d="M30.3,9.3v10.1l-11.5-4.6l14.8,6l17-7c-3.1,1.2-14.3,5.8-14.3,5.8V8.6l15,4.9L57,11L33.6,3.3
	c-0.1,0-0.2,0-0.3,0l-21.5,8.6l5.5,2.3L30.3,9.3z M34.1,7.1L34.1,7.1L34.1,7.1L34.1,7.1z"/>
</svg>
