<?xml version="1.0" encoding="utf-8"?>
<!-- Generator: Adobe Illustrator 18.0.0, SVG Export Plug-In . SVG Version: 6.00 Build 0)  -->
<!DOCTYPE svg PUBLIC "-//W3C//DTD SVG 1.1//EN" "http://www.w3.org/Graphics/SVG/1.1/DTD/svg11.dtd">
<svg version="1.1" id="Layer_1" xmlns="http://www.w3.org/2000/svg" xmlns:xlink="http://www.w3.org/1999/xlink" x="0px" y="0px"
	 viewBox="0 0 248 57.3" enable-background="new 0 0 248 57.3" xml:space="preserve">
<g>
	<path fill="#373D43" d="M67.4,18.1l-4.5-4.8c-0.1-0.1-0.1-0.1-0.2-0.2l-0.7-0.2c-0.1,0-0.1,0.1-0.2,0.1c0.1,0,0.1-0.1,0.2-0.1
		L39.8,5.6c-0.1,0-0.2,0-0.3,0L19,13.8l-1.4,0.5c-0.1,0-0.1,0.1-0.2,0.1l-6.9,7.1c-0.1,0.1-0.1,0.2-0.1,0.3v2.5
		c0,0.2,0.1,0.3,0.3,0.4l6.6,2.8v11.8c0,0.2,0.1,0.3,0.2,0.4l21.8,12c0.1,0,0.1,0.1,0.2,0.1c0.1,0,0.1,0,0.2,0l22.9-12
		c0.2-0.1,0.3-0.2,0.3-0.4l0-18.7l3.9,1.3c0.1,0.1,0.3,0,0.4,0c0.1-0.1,0.2-0.2,0.2-0.4v-3.2C67.5,18.3,67.4,18.2,67.4,18.1
		 M36.7,11.2v9.4l-12.2-4.8L36.7,11.2z M15.1,21.9l3.8-4l16.4,6.3l-4,4.7L15.1,21.9z M24.3,38.9L20.7,37l0-8l3.6,1.5L24.3,38.9z
		 M36.8,45.4l-5.4-2.8l0-9.1l1.1,0.4c0.2,0.1,0.4,0,0.5-0.1l3.9-4.4V45.4z M40.2,9.2L40.2,9.2h0.1H40.2z M42.4,20.8V10.5l14,4.6
		C56.4,15.1,42.4,20.8,42.4,20.8 M56,38.9c-1.4,0.7-4.3,0.7-5.2-0.6c0,0.7,0,1.2,0,2.1c0,0.6,0,1.2-0.8,1.7
		c-0.6,0.3-1.4,0.5-1.4-0.5c0-5.9,0-11.8,0-17.7c0-0.9-0.3-0.8-0.3-1c0-0.2,0.5-0.6,0.9-0.8c0.9-0.5,1.5-0.2,1.5,0.5
		c0,1.4,0,2.1,0,3.5c0,1.9,0,3.8,0,5.7c0,1.4,0,2.2,0,3.6v0.5c0.5-1.4,1.5-3,2.1-4.4c0.8-1.7,1.7-3.7,3.3-4.7
		c1.3-0.1,0.3,1.2-0.5,2.8c-1.1,2.2-2.3,4.5-3.1,6.8c0.3,1.1,2.6,1.1,3.7,0.5c0.6-0.3,1.1-0.8,1.4-1.4c0,0,0.1,0.1,0.1,0.1
		c0.1,0.2,0.3,0.5,0.3,0.8c0,0.2,0,0.5,0.1,0.7C57.7,37.8,56.9,38.4,56,38.9"/>
	<path fill="#373D43" d="M205.5,18.9c2.1,0,3.8-1.7,3.8-3.8c0-2.2-1.6-3.8-3.8-3.8c-2.1,0-3.7,1.7-3.7,3.8
		C201.8,17.2,203.5,18.9,205.5,18.9"/>
	<path fill="#373D43" d="M185.2,27.6c0-0.2,0.1-0.4,0.1-0.7c0-1.6-1.2-2.6-2.9-2.6c-1.4,0-2.8,0.2-4.2,0.7c-0.8,0.3-1.6,0.6-2.3,1
		c-0.2,0.1-0.4,0.2-0.6,0.3c0,0,0-0.1-0.1-0.1c-0.3-0.4-0.5-0.7-0.8-1.1c-0.2-0.3-0.5-0.5-0.7-0.7c-0.3-0.2-0.7-0.4-1-0.5
		c-0.9-0.2-1.8,0-2.6,0.6c-0.8,0.7-1.2,1.2-0.6,1.9c0.2,0.2,0.3,0.4,0.5,0.6c0,0,0.1,0.1,0.1,0.1c0.2,0.2,0.4,0.4,0.6,0.6
		c0,0,0.8,0.3,0.9,3.6c0,0,0,0,0,0v0.6v6.1v0h0v0.6l0,5.7v0.3v0.1v0v0.1v0v1.3v0.8c0,1.7,1,2.4,2,2.6c0.4,0.1,0.7,0.1,1,0.1
		c0.6,0,1-0.1,1.3-0.4c0.5-0.5,0.5-1.3,0.5-2.1c0,0,0,0,0-0.1l0-8.9c0,0,0,0,0,0v-4.7c0.1-0.8,0.1-1.7,0-2.5v-0.1c0,0,0,0,0,0
		c0.6-0.6,1.2-1,1.9-1.4c1.4-0.8,2.9-1.2,4.3-1.2c0.3,0,0.6,0,0.9,0.1c0.3,0,0.6,0.1,0.8,0.1C184.9,28.3,185.1,28.1,185.2,27.6"/>
	<path fill="#373D43" d="M116.7,30.3c-0.5-1.3-1.2-2.4-2.1-3.4c-1.3-1.4-3.1-2.7-5-2.9c-1.9-0.2-3.6,0.7-5,1.8c0,0,0,0,0,0
		c0,0,0,0,0,0c-1.9,1.6-5.2,5-5.2,12.4c0,0.8,0,1.5,0.1,2.2l0,0l0,0.2c-0.9,2.3-2.6,4.8-4.9,4.8c-2.3,0-6.6-2.4-7.2-5
		c1.9-4.2,3.4-5.6,6.3-10.5c1.5-2.5,3.4-4.1,0.9-5.2c-3,0-5.9,4.7-6.6,6.1c-1.9,3.5-3.3,5.5-4.1,7l0-24.6v-0.5v-2.4
		c0-0.3-0.1-0.6-0.1-0.9c-0.3-0.8-0.8-1.3-1.4-1.5c-0.5-0.2-1-0.2-1.5-0.2c-0.6,0-1,0.1-1.3,0.4c-0.3,0.3-0.4,0.7-0.5,1.2
		c0,0,0,0,0,0l0,0v1.2v2.9h0v33.4c0,2.4,1.9,2.8,3,2.8c0.6,0,1-0.1,1.3-0.4c0.5-0.5,0.5-1.4,0.5-2.2v-4.3c1.8,3.4,6.4,6.8,10.1,6.8
		c3.1,0,5.4-1.9,7-4.2c0,0,0.1,0.1,0.1,0.1c1.5,2.7,4.1,4.2,7.3,4.2c1.8,0,3.5-0.5,4.8-1.5c1-0.8,1.8-1.8,2.5-2.9c0,0,0-0.1,0.1-0.1
		c0.5-0.9,0.9-1.9,1.2-2.9c0,0,0-0.1,0-0.1C118,38.5,118.1,34,116.7,30.3 M113.3,35.2c0,0.5,0,0.9,0,1.4c-0.1,2.2-0.4,4.5-1.3,6.5
		c0,0,0,0.1-0.1,0.1c0,0,0,0.1-0.1,0.1c-0.1,0.2-0.2,0.4-0.3,0.6c-0.8,1.1-1.8,1.6-3.1,1.6c-2.6,0-4.2-2.9-4.2-7.5
		c0-3,0.1-8.7,4.2-9c1-0.1,2.4,0.2,3.2,0.8C113.2,30.9,113.3,33.2,113.3,35.2"/>
	<path fill="#373D43" d="M165.5,45.1c-0.6,0.2-1.2,0.2-1.9,0.2c-2.6,0-4.4-1.2-5.5-3.6c5.8-1.8,8.9-7.2,8.9-11.6
		c0-3.8-2.2-6.2-5.5-6.2c-4.5,0-9.3,5.4-9.3,13.5c0,0.9,0.1,1.9,0.2,2.7c-0.9,3.4-2.1,5.1-3.6,5.1c-1,0-1.5-0.9-1.5-2.7V30.3
		c0-2.3-0.6-6.2-4.9-6.2c-2.4,0-4.5,1.8-6.2,5.3c-0.2-2.2-1.1-5.3-4.8-5.3c-2.3,0-4.4,1.8-6.3,5.4v-2.2c0-0.3-0.1-0.6-0.1-0.9
		c-0.3-0.8-0.8-1.3-1.4-1.5c-0.5-0.2-1-0.2-1.5-0.2c0,0,0,0,0,0c-0.5,0-1,0.2-1.2,0.4c-0.3,0.3-0.4,0.7-0.5,1.2c0,0,0,0,0,0l0,0v1.2
		v2.9h0h0.2c-0.1,0-0.1,0-0.2,0c0,0,0,0,0,0v7.5h0v0.6l0,6.1v2.3c0,2.4,1.9,2.8,3,2.8c0.6,0,1-0.1,1.3-0.4c0.5-0.5,0.5-1.4,0.5-2.2
		v-8.9c0.4-4.6,3.7-9.8,5.3-9.8c0.9,0,1,1.3,1,3.3v15.2c0,2.4,1.9,2.8,3,2.8c0.6,0,1-0.1,1.3-0.4c0.5-0.5,0.5-1.4,0.5-2.2v-8.9
		c0.4-4.6,3.7-9.8,5.3-9.8c0.9,0,1,1.3,1,3.3v12.2c0,3.4,2.1,5.8,5.2,5.8c2.7,0,5-1.5,6.7-4.5l0,0l0,0c2,2.8,5.2,4.5,8.5,4.5
		c0.7,0,1.3,0,2-0.1c2.2-0.8,1.7-2.4,1.7-2.4C166.6,46,166.1,45.4,165.5,45.1 M157.9,31.5c1.1-4.2,3.3-3.8,3.3-3.8
		c2.1,0.3,0.9,4.8,0.9,4.8c-1.2,4.5-4.8,5.7-4.8,5.7C157.1,34.6,157.9,31.5,157.9,31.5"/>
	<path fill="#373D43" d="M235.3,37.1c-0.7,0-1.3,0.7-1.6,1.9c-0.9,4.3-2.2,6.4-3.9,6.4c-1.3,0-1.9-1.3-1.9-2.7v-7v-0.9l0,0v-2
		c0-0.2,0-0.4-0.1-0.5c0,0,0,0,0,0c0-0.2-0.1-0.3-0.1-0.4c0,0,0,0,0-0.1c-0.1-0.1-0.1-0.3-0.2-0.4c0,0,0-0.1-0.1-0.1
		c-0.1-0.1-0.2-0.2-0.3-0.3c0,0-0.1-0.1-0.1-0.1c-0.1-0.1-0.2-0.2-0.3-0.2c0,0-0.1-0.1-0.1-0.1c-0.1-0.1-0.2-0.1-0.4-0.2
		c-0.1,0-0.1,0-0.2-0.1c-0.1,0-0.3-0.1-0.4-0.1c-0.1,0-0.1,0-0.2,0c-0.1,0-0.3,0-0.4-0.1c-0.1,0-0.1,0-0.2,0c-0.5,0-0.9,0.2-1.2,0.4
		c-0.3,0.3-0.4,0.7-0.5,1.2c0,0,0,0,0,0l0,0v1.2v2.8c0,0,0,0,0,0v6.6c-0.6,1.4-1.6,3-3.3,3c-2.1,0-3.3-1.8-3.3-4.8
		c0-8.2,4.9-12.5,9.8-12.5c0.3,0,0.6,0,0.9,0.1c0.3,0,0.6,0.1,0.8,0.1c0.8,0,0.9-0.5,0.9-1.5c0-1.6-1.2-2.6-2.9-2.6
		c-3.7,0-7.4,1.6-10,4.4c-2.9,3-4.4,7.2-4.4,12c0,0.5,0,0.9,0.1,1.4c-0.8,2.4-1.9,3.6-3.2,3.6c-0.9,0-1.5-0.9-1.5-2.7V30.4v-1
		c0,0,0,0,0,0v-2c0-1.5-1.3-2.6-3.1-2.8c-0.5,0-1,0.2-1.2,0.4c-0.3,0.3-0.4,0.7-0.5,1.2c0,0,0,0,0,0l0,0v1.2v2.8c0,0,0,0,0,0v7.6
		c-0.4,2.3-2.1,7.5-7.5,7.5c-3.7,0-6-2.9-6-7.3c0-5.2,2-9.8,4.2-9.8c1.6,0,2,1.5,2.2,2.6c0,0.2,0.1,0.4,0.1,0.5
		c-0.1,0.4,0,0.6,0.2,0.9c0.2,0.2,0.5,0.3,0.9,0.3c1.2,0,2.9-1,2.9-2.6c0-2-1.4-6-5.8-6c-5.8,0-9.8,7-9.9,13.7c0,2,0.5,7.6,5.8,10.8
		c1.4,0.7,3,1.1,4.7,1.1c3.5,0,6.4-1.1,8.5-3.4l0,0l0,0c0.8,2.1,2.5,3.4,4.8,3.4c2.3,0,4.2-1,5.8-3.1l0,0l0,0c1.3,2,3.3,3.1,5.7,3.1
		c2,0,3.7-0.8,5.2-2.4c1,1.5,2.7,2.4,4.7,2.4c5.5,0,7.8-5.9,8.7-9.5c0.1-0.3,0.1-0.4,0.1-0.4C237.5,38.4,236.3,37.1,235.3,37.1"/>
</g>
</svg>
